PathFileType	4	(X/Y/Z)	c:/Users/goper/Files/vsCode/490R/osim_files/C15/C15_Static02.trc
DataRate	CameraRate	NumFrames	NumMarkers	Units                	OrigDataRate	OrigDataStartFrame	OrigNumFrames
250.00	250.00	7	36	mm	250.0	766	1020
                Frame#	Time	LPSIS			LASIS			LTH1			LTH2			LTH3			LTH4			LLFE			LMFE			LSH1			LSH2			LSH3			LSH4			LLMAL			LMMAL			LCAL			LMTP5			LTOE			LMTP1			RPSIS			RASIS			RTH1			RTH2			RTH3			RTH4			RLFE			RMFE			RSH1			RSH2			RSH3			RSH4			RLMAL			RMMAL			RCAL			RMTP1			RTOE			RMTP5		
		X1	Y1	Z1	X2	Y2	Z2	X3	Y3	Z3	X4	Y4	Z4	X5	Y5	Z5	X6	Y6	Z6	X7	Y7	Z7	X8	Y8	Z8	X9	Y9	Z9	X10	Y10	Z10	X11	Y11	Z11	X12	Y12	Z12	X13	Y13	Z13	X14	Y14	Z14	X15	Y15	Z15	X16	Y16	Z16	X17	Y17	Z17	X18	Y18	Z18	X19	Y19	Z19	X20	Y20	Z20	X21	Y21	Z21	X22	Y22	Z22	X23	Y23	Z23	X24	Y24	Z24	X25	Y25	Z25	X26	Y26	Z26	X27	Y27	Z27	X28	Y28	Z28	X29	Y29	Z29	X30	Y30	Z30	X31	Y31	Z31	X32	Y32	Z32	X33	Y33	Z33	X34	Y34	Z34	X35	Y35	Z35	X36	Y36	Z36

766	3.06000	-434.15399	1029.34521	402.36115	-271.29498	1009.28363	329.78262	-358.02646	634.58295	251.02596	-361.78134	587.20673	264.21375	-306.07004	638.56531	252.35979	-307.38928	593.26178	258.80942	-341.97388	500.58804	276.64798	-334.77087	476.84464	395.47604	-411.06302	395.73819	259.53537	-414.16412	353.13489	250.51730	-349.46838	388.44186	255.98250	-360.06372	345.47882	247.20856	-403.14487	84.80400	288.48740	-382.93286	103.95035	379.20050	-463.88950	57.95156	331.66803	-281.04108	35.86708	263.44138	-224.72592	59.08295	326.40857	-260.57773	38.89453	381.54340	-426.48923	1030.29077	522.09741	-269.25116	1006.10199	580.55750	-341.67365	643.05786	652.49902	-341.81705	596.32739	647.18237	-282.11404	637.93848	639.58527	-290.52365	591.87305	639.01898	-337.37213	498.24411	624.89923	-354.02280	474.24667	508.89685	-426.11877	399.61951	649.92816	-427.70737	356.39676	657.09607	-364.48804	389.16861	651.89490	-376.15598	348.91519	659.71606	-416.72772	84.44142	616.94891	-387.58151	103.06871	529.29266	-477.08667	58.28388	572.64606	-273.56967	37.75917	535.08685	-239.32675	55.81872	588.56439	-299.55832	30.97779	654.06989
767	3.06400	-434.18845	1029.36047	402.33972	-271.31723	1009.30615	329.78354	-358.04538	634.57971	251.02147	-361.80374	587.19769	264.20792	-306.07129	638.59198	252.34782	-307.40607	593.28711	258.80270	-341.98694	500.59293	276.63422	-334.79300	476.90457	395.47784	-411.04276	395.74622	259.51105	-414.20224	353.14728	250.51573	-349.47043	388.47968	255.96904	-360.04639	345.50595	247.20564	-403.13559	84.80554	288.47253	-382.97714	103.95806	379.17825	-463.89410	57.96677	331.64597	-281.03748	35.88167	263.43353	-224.74770	59.09141	326.41736	-260.47083	39.01641	381.59338	-426.54874	1030.29626	522.07751	-269.29892	1006.10681	580.55182	-341.74664	643.08081	652.46246	-341.91055	596.32312	647.14722	-282.15662	637.95398	639.57190	-290.56879	591.87854	639.02753	-337.40286	498.25925	624.91669	-354.01614	474.25836	508.87372	-426.14514	399.63608	649.91949	-427.75018	356.41138	657.06714	-364.49368	389.19846	651.87518	-376.20624	348.92303	659.72925	-416.77316	84.45255	616.93634	-387.60638	103.05772	529.28857	-477.13583	58.29596	572.62805	-273.59406	37.77881	535.09998	-239.36275	55.83376	588.55286	-299.58298	30.97982	654.06390
768	3.06800	-434.18448	1029.35156	402.31488	-271.32837	1009.30084	329.77707	-358.04913	634.56671	251.01419	-361.78122	587.20911	264.16339	-306.07806	638.58502	252.34845	-306.98184	593.18958	258.78018	-341.97858	500.59146	276.62531	-334.79099	476.90491	395.45508	-411.08719	395.75021	259.52963	-414.19452	353.15628	250.47720	-349.47134	388.47485	255.95470	-360.07166	345.49414	247.20918	-403.15451	84.79514	288.48331	-382.99738	103.97617	379.17950	-463.84344	57.98832	331.58624	-281.05649	35.87397	263.43134	-224.78323	59.08225	326.41516	-260.50049	39.00769	381.57822	-426.52911	1030.28906	522.05933	-269.34003	1006.13226	580.58191	-341.76840	643.08490	652.46851	-341.89890	596.35052	647.15833	-282.17841	637.97913	639.59802	-290.59976	591.89062	639.03607	-337.44272	498.27667	624.90277	-354.02499	474.26379	508.88513	-426.16367	399.64081	649.92010	-427.76541	356.42319	657.07501	-364.51895	389.19110	651.91693	-376.21536	348.93167	659.70966	-416.78571	84.46761	616.92548	-387.61066	103.03990	529.28357	-477.14462	58.30794	572.62012	-273.62506	37.75728	535.08362	-239.37653	55.83429	588.55957	-299.58630	30.99294	654.06012
769	3.07200	-434.19553	1029.37000	402.33133	-271.34631	1009.30060	329.79166	-358.06256	634.57513	251.00127	-361.75299	587.20923	264.12039	-306.10110	638.58722	252.34550	-307.39557	593.29333	258.80774	-341.97769	500.58585	276.62958	-334.78891	476.92700	395.44440	-411.08075	395.74057	259.51349	-414.16455	353.17456	250.46815	-349.49429	388.45407	255.96944	-360.04758	345.50388	247.18542	-403.13712	84.79468	288.47534	-382.97855	103.98436	379.17477	-463.86209	57.99601	331.54999	-281.05566	35.85489	263.43051	-224.75610	59.09849	326.39749	-260.50369	39.01540	381.57532	-426.56351	1030.31628	522.05524	-269.31302	1006.14978	580.55267	-341.77112	643.10010	652.47003	-341.87198	596.36023	647.13849	-282.14844	638.00409	639.57001	-290.58994	591.91199	639.01886	-337.39984	498.35446	624.93109	-354.04639	474.24719	508.87729	-426.16910	399.64682	649.92566	-427.76398	356.43164	657.08258	-364.47751	389.23117	651.90814	-376.17282	348.95447	659.70032	-416.75925	84.49796	616.92584	-387.60501	103.04762	529.27979	-477.14230	58.33947	572.59796	-273.60965	37.78410	535.05627	-239.34778	55.85374	588.53680	-299.54306	31.03067	654.03082
770	3.07600	-434.20419	1029.35828	402.32196	-271.37598	1009.25989	329.78751	-358.08017	634.56134	250.99234	-361.81256	587.17438	264.16623	-306.11563	638.56897	252.33502	-307.44128	593.26398	258.78641	-341.98471	500.57806	276.62106	-334.77554	476.91837	395.44876	-411.08514	395.72345	259.51611	-414.17264	353.15237	250.44777	-349.49030	388.41760	255.96147	-360.04889	345.48169	247.18175	-403.14420	84.77615	288.46735	-382.90814	103.99546	379.14935	-463.85565	58.02390	331.53671	-280.94238	35.99559	263.31400	-224.71584	59.09340	326.39331	-260.44284	39.03254	381.55576	-426.61420	1030.31506	522.05573	-269.29440	1006.12799	580.54065	-341.71890	643.10974	652.46149	-341.86652	596.34137	647.13055	-282.10226	638.00806	639.55115	-290.55948	591.91162	639.01196	-337.36093	498.32791	624.89490	-354.04846	474.25204	508.88791	-426.15540	399.63574	649.92133	-427.74249	356.42493	657.06964	-364.44678	389.21777	651.85864	-376.14642	348.94791	659.69489	-416.68533	84.50167	616.92059	-387.59958	103.03229	529.27734	-477.12946	58.32300	572.58887	-273.59668	37.75809	535.07697	-239.30147	55.86362	588.50439	-299.52032	31.02177	654.02051
771	3.08000	-434.23672	1029.35303	402.32971	-271.42102	1009.24847	329.80063	-358.07285	634.55017	250.99913	-361.78946	587.19037	264.17676	-306.11710	638.54834	252.34546	-307.46851	593.22900	258.81555	-341.95428	500.57938	276.62085	-334.80081	476.89435	395.49255	-411.07764	395.70587	259.52951	-414.16507	353.13495	250.46249	-349.47186	388.40045	255.96288	-360.06143	345.46603	247.19035	-403.12076	84.76380	288.46106	-382.86444	103.97683	379.16116	-463.85101	57.98647	331.56100	-280.92068	35.98047	263.30927	-224.70871	59.07073	326.38327	-260.57516	38.88976	381.51617	-426.62204	1030.30762	522.05768	-269.27798	1006.10785	580.56091	-341.67529	643.09741	652.48596	-341.81186	596.32324	647.16833	-282.09494	638.00104	639.55975	-290.54761	591.88794	638.99945	-337.29163	498.30991	624.94446	-354.06509	474.22351	508.89618	-426.12787	399.63708	649.93958	-427.71133	356.37628	657.08319	-364.45538	389.19550	651.88818	-376.12335	348.92636	659.68976	-416.68207	84.47341	616.93237	-387.61044	102.99866	529.30121	-477.07321	58.29013	572.59308	-273.56076	37.73808	535.06689	-239.27815	55.83960	588.50262	-299.52985	30.99764	654.03510
772	3.08400	-434.22232	1029.35681	402.35580	-271.42780	1009.23761	329.79465	-358.06470	634.54236	251.00006	-361.77417	587.17889	264.14944	-306.10809	638.55487	252.33586	-307.49545	593.23358	258.79367	-341.97318	500.56717	276.61792	-334.77194	476.89990	395.47354	-411.06375	395.71515	259.51273	-414.15781	353.13684	250.44815	-349.50113	388.38800	255.94800	-360.04855	345.45114	247.17668	-403.11276	84.75698	288.45465	-382.86661	103.95868	379.17590	-463.82245	57.94472	331.59787	-280.90573	35.97635	263.30060	-224.66794	59.06614	326.37817	-260.56390	38.89531	381.50900	-426.62622	1030.30237	522.08325	-269.28705	1006.11572	580.55432	-341.69009	643.08594	652.51154	-341.80673	596.31940	647.18842	-282.14874	637.95868	639.56219	-290.54526	591.86792	639.00714	-337.30997	498.28622	624.91217	-354.02441	474.22141	508.87268	-426.12204	399.61438	649.95215	-427.69772	356.35141	657.08179	-364.46262	389.18259	651.88989	-376.12360	348.90930	659.69385	-416.67694	84.48196	616.91803	-387.58469	102.99136	529.27917	-477.05765	58.28046	572.61017	-273.58575	37.70688	535.05548	-239.28265	55.81178	588.50513	-299.50085	30.99060	654.05621
